<svg width="50" height="40" viewBox="0 0 50 40" fill="none" xmlns="http://www.w3.org/2000/svg">
<path d="M44.7325 0H5.26746C2.35811 0 0 1.89465 0 4.21396V35.786C0 38.1135 2.36831 40 5.26746 40H44.7325C47.6419 40 50 38.1054 50 35.786V4.21396C50 1.89465 47.6317 0 44.7325 0ZM47.499 35.786C47.499 37.0029 46.2536 37.9992 44.7325 37.9992H5.26746C3.74643 37.9992 2.50102 37.0029 2.50102 35.786V4.21396C2.50102 2.99714 3.74643 2.00082 5.26746 2.00082H44.7325C46.2536 2.00082 47.499 2.99714 47.499 4.21396V35.786Z" fill="#D5A129"/>
<path d="M34.4425 19.0037H26.2453V12.4459C26.2453 11.8906 25.6839 11.4414 24.9897 11.4414C24.2955 11.4414 23.7341 11.8906 23.7341 12.4459V19.0037H15.5369C14.8427 19.0037 14.2812 19.4528 14.2812 20C14.2812 20.5553 14.8427 21.0045 15.5369 21.0045H23.7341V27.5623C23.7341 28.1176 24.2955 28.5668 24.9897 28.5668C25.6839 28.5668 26.2453 28.1176 26.2453 27.5623V21.0045H34.4425C35.1367 21.0045 35.6982 20.5553 35.6982 20C35.6982 19.4447 35.1367 19.0037 34.4425 19.0037Z" fill="#D5A129"/>
</svg>
