<svg width="40" height="40" viewBox="0 0 40 40" fill="none" xmlns="http://www.w3.org/2000/svg">
<path d="M20 0C8.9525 0 0 8.955 0 20C0 31.045 8.9525 40 20 40C31.0475 40 40 31.045 40 20C40 8.955 31.0475 0 20 0ZM29.2675 25.7325C30.245 26.71 30.245 28.29 29.2675 29.2675C28.78 29.755 28.14 30 27.5 30C26.86 30 26.22 29.755 25.7325 29.2675L20 23.535L14.2675 29.2675C13.78 29.755 13.14 30 12.5 30C11.86 30 11.22 29.755 10.7325 29.2675C9.755 28.29 9.755 26.71 10.7325 25.7325L16.465 20L10.7325 14.2675C9.755 13.29 9.755 11.71 10.7325 10.7325C11.71 9.755 13.29 9.755 14.2675 10.7325L20 16.465L25.7325 10.7325C26.71 9.755 28.29 9.755 29.2675 10.7325C30.245 11.71 30.245 13.29 29.2675 14.2675L23.535 20L29.2675 25.7325Z" fill="#D5A129"/>
</svg>
