<svg width="40" height="40" viewBox="0 0 40 40" fill="none" xmlns="http://www.w3.org/2000/svg">
<path d="M28.7788 25.1312L20.8198 19.5656V10C20.8198 9.54918 20.4509 9.18033 20.0001 9.18033C19.5493 9.18033 19.1804 9.54918 19.1804 10V20C19.1804 20.2705 19.3116 20.5164 19.5329 20.6721L27.8444 26.4836C27.9837 26.582 28.1476 26.6311 28.3116 26.6311C28.5657 26.6311 28.8198 26.5082 28.9837 26.2705C29.2378 25.9016 29.1476 25.3934 28.7788 25.1312Z" fill="#D5A129"/>
<path d="M34.1311 5.86886C30.3443 2.08197 25.3279 0 20 0C14.6721 0 9.65574 2.08197 5.86885 5.86886C2.08197 9.65574 0 14.6721 0 20C0 25.3279 2.08197 30.3443 5.86885 34.1311C9.65574 37.918 14.6721 40 20 40C25.3279 40 30.3443 37.918 34.1311 34.1311C37.918 30.3443 40 25.3279 40 20C40 14.6721 37.918 9.65574 34.1311 5.86886ZM20.8197 38.3443V35C20.8197 34.5492 20.4508 34.1803 20 34.1803C19.5492 34.1803 19.1803 34.5492 19.1803 35V38.3443C9.70492 37.9262 2.07377 30.2951 1.65574 20.8197H5C5.45082 20.8197 5.81967 20.4508 5.81967 20C5.81967 19.5492 5.45082 19.1803 5 19.1803H1.65574C2.07377 9.70492 9.70492 2.07377 19.1803 1.65574V5C19.1803 5.45082 19.5492 5.81967 20 5.81967C20.4508 5.81967 20.8197 5.45082 20.8197 5V1.65574C30.2951 2.07377 37.9262 9.70492 38.3443 19.1803H35C34.5492 19.1803 34.1803 19.5492 34.1803 20C34.1803 20.4508 34.5492 20.8197 35 20.8197H38.3443C37.9262 30.2951 30.2951 37.9262 20.8197 38.3443Z" fill="#D5A129"/>
</svg>
