<svg width="50" height="40" viewBox="0 0 50 40" fill="none" xmlns="http://www.w3.org/2000/svg">
<path d="M32.2673 3.9182C32.2673 1.75773 30.0701 0 27.3695 0H22.6305C19.9299 0 17.7327 1.75773 17.7327 3.91828V4.58297H6.70752V12.1495H9.15254L13.336 40H36.6637L40.8473 12.1493H43.2923V4.58289H32.2673V3.9182ZM20.7938 3.91828C20.7938 3.10812 21.6178 2.44898 22.6304 2.44898H27.3694C28.3821 2.44898 29.206 3.10812 29.206 3.91828V4.58297H20.7938V3.91828ZM33.9483 37.551H16.0516L12.2356 12.1493H37.7643L33.9483 37.551ZM40.2311 7.0318V9.70031H9.76875V7.0318H17.7326H32.2673H40.2311Z" fill="#D5A129"/>
<path d="M19.6989 14.7387L16.6421 14.8685L17.9885 35.1627L21.0453 35.0329L19.6989 14.7387Z" fill="#D5A129"/>
<path d="M26.5307 14.8024H23.4695V35.0963H26.5307V14.8024Z" fill="#D5A129"/>
<path d="M30.301 14.7388L28.9546 35.0329L32.0114 35.1627L33.3578 14.8686L30.301 14.7388Z" fill="#D5A129"/>
</svg>
