<svg width="50" height="40" viewBox="0 0 50 40" fill="none" xmlns="http://www.w3.org/2000/svg">
<path d="M26.8483 0.810543L29.289 1.7832L26.8483 1.45898C25.4652 1.26445 23.0244 0.940228 21.3973 0.680855C13.6682 -0.291798 3.98656 4.83084 1.62717 11.0558C0.0813599 15.2058 0.0813599 17.0214 1.70853 20.7823C4.06792 26.3589 12.1224 30.9628 19.526 30.9628C29.3704 30.9628 38.6452 23.5706 38.6452 15.6597C38.6452 12.8066 36.6926 8.72145 34.0078 5.86834C32.6247 4.44178 32.2179 3.66366 32.9501 3.85819C33.601 3.98787 35.2282 5.54412 36.6113 7.2949C39.5402 11.0558 40.3538 17.5402 38.4012 21.3659C37.2621 23.5706 37.2621 23.7651 38.8893 24.9972C39.8656 25.7105 41.5741 26.4237 42.7131 26.5534C44.1776 26.6831 44.9912 27.3315 45.5607 28.8229C46.0488 29.9901 47.2692 31.6112 48.2455 32.4542C50.4422 34.3346 50.6049 37.512 48.571 38.9385C46.4556 40.4948 42.7945 40.3002 40.5165 38.6143C39.4588 37.8362 37.4249 36.8635 35.9604 36.4745C34.0892 36.0206 33.2756 35.3721 33.1129 34.205C32.9501 33.2971 32.0552 31.9354 31.1603 31.1573C29.6145 29.8604 29.3704 29.8604 26.6042 30.7682C24.6516 31.4167 21.8854 31.6761 18.2243 31.4815C11.2275 31.1573 6.02052 28.7581 2.44075 24.2191C0.244076 21.3659 0 20.4581 0 15.7246C0 10.991 0.244076 10.0832 2.44075 7.23005C6.10188 2.56132 11.3088 0.226952 18.6311 0.0324211C22.5363 -0.0972672 25.2211 0.162106 26.8483 0.810543ZM32.2179 30.6386C33.7637 31.8706 33.7637 31.8706 36.774 29.5362C39.7029 27.2019 39.7029 27.0722 38.3198 25.8401C36.9367 24.6081 36.8553 24.6081 33.8451 26.9425C30.7535 29.2768 30.7535 29.3417 32.2179 30.6386ZM37.5062 30.2495C34.9027 32.3893 33.6824 33.8159 34.0078 34.4643C34.9027 36.2151 37.3435 35.6315 40.9233 32.7136C44.1776 30.1198 45.0725 28.4987 43.7708 27.5261C42.6318 26.6183 41.3301 27.2019 37.5062 30.2495ZM41.086 37.5768C44.0149 39.7167 45.398 39.8463 47.5947 38.0956C49.7913 36.3448 49.6286 35.3721 47.1065 32.9081L44.9098 30.8979L41.7368 33.362L38.5639 35.826L41.086 37.5768Z" fill="#9B4E23"/>
<path d="M31.323 3.14489C31.323 3.46911 30.9162 3.5988 30.5094 3.40427C30.0213 3.20974 29.6958 2.88552 29.6958 2.69099C29.6958 2.5613 30.0213 2.43161 30.5094 2.43161C30.9162 2.43161 31.323 2.75583 31.323 3.14489Z" fill="#9B4E23"/>
<path d="M25.3023 5.60897C37.9129 10.148 35.3908 24.7378 21.7225 26.8128C15.3766 27.7855 8.05434 24.0245 6.10174 18.837C4.14914 13.6496 7.1594 8.3324 13.424 5.8035C17.8173 4.05273 20.909 3.98789 25.3023 5.60897ZM12.0409 7.48944C4.55593 11.7691 5.61359 21.6253 13.9121 24.8027C18.0614 26.3589 23.8379 25.8401 27.5803 23.6355C34.4145 19.4206 33.2754 9.88865 25.465 6.71131C21.8853 5.28476 15.2952 5.60897 12.0409 7.48944Z" fill="#9B4E23"/>
</svg>
