<svg width="40" height="40" viewBox="0 0 40 40" fill="none" xmlns="http://www.w3.org/2000/svg">
<path d="M0 20.0041C0 20.7807 0.617106 21.4102 1.37847 21.4102H27.6335L22.5123 26.6258C21.9754 27.1735 21.9754 28.0646 22.5123 28.6123C22.7768 28.8821 23.1294 29.021 23.4821 29.021C23.8347 29.021 24.1873 28.8821 24.4518 28.6123L31.9132 21.0014C32.4501 20.4537 32.4501 19.5626 31.9132 19.0149L24.4518 11.404C23.9149 10.8563 23.0413 10.8563 22.5043 11.404C21.9674 11.9518 21.9674 12.8428 22.5043 13.3906L27.6175 18.6062H1.37847C0.617106 18.6062 0 19.2275 0 20.0041Z" fill="#D5A129"/>
<path d="M31.7693 40C36.3134 40 40 36.2313 40 31.5962V8.40384C40 3.76865 36.3054 0 31.7693 0H9.03251C4.48836 0 0.801758 3.76865 0.801758 8.40384V13.1698C0.801758 13.9465 1.41886 14.5677 2.17221 14.5677C2.93358 14.5677 3.55068 13.9383 3.55068 13.1698V8.40384C3.55068 5.32189 6.01109 2.80401 9.03251 2.80401H31.7693C34.7907 2.80401 37.2511 5.31371 37.2511 8.40384V31.5962C37.2511 34.6781 34.7907 37.196 31.7693 37.196H9.03251C6.01109 37.196 3.55068 34.6863 3.55068 31.5962V26.8874C3.55068 26.1108 2.93358 25.4813 2.17221 25.4813C1.41085 25.4813 0.801758 26.1108 0.801758 26.8874V31.5962C0.801758 36.2313 4.49638 40 9.03251 40H31.7693Z" fill="#D5A129"/>
</svg>
