<svg width="50" height="40" viewBox="0 0 50 40" fill="none" xmlns="http://www.w3.org/2000/svg">
<path d="M0 7.34449V32.6555C0 36.1432 2.84519 38.9884 6.33284 38.9884H26.7896C30.2773 38.9884 33.1225 36.1432 33.1225 32.6555V28.556C33.1225 27.8625 32.5616 27.3017 31.8681 27.3017C31.1747 27.3017 30.6138 27.8625 30.6138 28.556V32.6555C30.6138 34.7665 28.8904 36.4899 26.7794 36.4899H6.33284C4.22189 36.4899 2.49846 34.7665 2.49846 32.6555V7.34449C2.49846 5.23353 4.22189 3.5101 6.33284 3.5101H26.7896C28.9006 3.5101 30.624 5.23353 30.624 7.34449V11.444C30.624 12.1375 31.1849 12.6984 31.8783 12.6984C32.5718 12.6984 33.1327 12.1375 33.1327 11.444V7.34449C33.1327 3.85682 30.2875 1.01163 26.7998 1.01163H6.33284C2.84519 1.01163 0 3.84663 0 7.34449Z" fill="#D5A129"/>
<path d="M39.3026 29.433C39.5473 29.6777 39.8635 29.8001 40.1898 29.8001C40.5161 29.8001 40.8323 29.6777 41.077 29.433L49.633 20.877C50.1225 20.3875 50.1225 19.6023 49.633 19.1128L41.077 10.5568C40.5875 10.0673 39.8023 10.0673 39.3128 10.5568C38.8233 11.0463 38.8233 11.8315 39.3128 12.321L45.7374 18.7457H22.2927C21.5992 18.7457 21.0383 19.3065 21.0383 20C21.0383 20.6934 21.5992 21.2543 22.2927 21.2543H45.7272L39.3026 27.679C38.8131 28.1583 38.8131 28.9537 39.3026 29.433Z" fill="#D5A129"/>
</svg>
