<svg width="40" height="40" viewBox="0 0 40 40" fill="none" xmlns="http://www.w3.org/2000/svg">
<path d="M20 0C8.972 0 0 8.972 0 20C0 31.028 8.972 40 20 40C31.028 40 40 31.028 40 20C40 8.972 31.028 0 20 0ZM20 36.3636C10.977 36.3636 3.63636 29.0229 3.63636 20C3.63636 10.9771 10.977 3.63636 20 3.63636C29.023 3.63636 36.3636 10.9771 36.3636 20C36.3636 29.0229 29.0229 36.3636 20 36.3636Z" fill="#D5A129"/>
<path d="M27.4996 12.929L17.2142 23.2142L12.5003 18.5001C11.7904 17.7902 10.6391 17.7901 9.92903 18.5C9.21897 19.2101 9.21897 20.3612 9.92903 21.0713L15.9285 27.071C16.2695 27.412 16.7319 27.6036 17.2141 27.6036C17.2142 27.6036 17.2141 27.6036 17.2142 27.6036C17.6964 27.6036 18.1589 27.412 18.4998 27.0711L30.0709 15.5004C30.7809 14.7903 30.7809 13.6392 30.0709 12.9291C29.3608 12.219 28.2096 12.2189 27.4996 12.929Z" fill="#D5A129"/>
</svg>
