<svg width="50" height="40" viewBox="0 0 50 40" fill="none" xmlns="http://www.w3.org/2000/svg">
<path d="M31.1 4.80001C28.1 6.32001 26.9 6.48001 18.9 5.92001C14.1 5.68001 8.59997 5.60001 6.69997 5.92001C2.19997 6.56001 1.09997 8.72001 4.19997 10.72C6.29997 12.08 7.59997 12.16 17.2 11.68C26.8 11.2 28.2 11.36 31.2 12.8C35.5 14.88 39.9 14.8 44.1 12.56C48.3 10.32 48.8 8.08001 45.6 5.68001C42.1 3.04001 35.5 2.64001 31.1 4.80001ZM42.4 5.68001C46.8 7.28001 46.8 10.32 42.4 11.92C38.6 13.28 34.6 12.96 31.7 11.2C29.3 9.68001 28.2 9.60001 17.8 10C6.09997 10.48 1.69997 9.84001 4.99997 7.92001C5.99997 7.44001 10.5 7.28001 17.8 7.60001C28.2 8.00001 29.3 7.92001 31.7 6.40001C34.6 4.64001 38.6 4.32001 42.4 5.68001Z" fill="#D5A129"/>
<path d="M2 20.8C2 26.72 6.7 32.96 13.2 35.68C16.9 37.2 33.1 37.2 36.8 35.68C43.3 32.96 48 26.72 48 20.8V17.6H25H2V20.8ZM46 21.68C46 25.04 43.6 28.8 39.4 32.08L35.9 34.8H25H14.1L10.4 32C6.3 28.8 4 25.2 4 21.6V19.2H25H46V21.68Z" fill="#D5A129"/>
</svg>
