<svg width="40" height="40" viewBox="0 0 40 40" fill="none" xmlns="http://www.w3.org/2000/svg">
<path d="M37.9645 9.35263H35.3219C31.49 7.64198 28.2365 6.76279 25.6431 6.76279C22.2843 6.76279 20.7118 8.22652 20.0005 9.34308C19.2896 8.22652 17.7174 6.76279 14.3579 6.76279C11.7647 6.76279 8.51088 7.64274 4.67795 9.35263H2.03559C0.91149 9.35263 0 10.264 0 11.3882V31.2017C0 32.3262 0.91149 33.2373 2.03559 33.2373H37.9645C39.0889 33.2373 40 32.3262 40 31.2017V11.3882C40 10.2641 39.0889 9.35263 37.9645 9.35263ZM19.4494 10.5882C19.4434 10.6196 19.4407 10.6514 19.4407 10.6833V29.3702C18.5506 28.3424 17.0596 27.556 14.5649 27.556C10.1117 27.556 4.52176 29.9977 2.52563 30.942V11.5008C4.23552 10.6304 5.83157 9.9192 7.32006 9.35263C10.0524 8.31335 12.4123 7.78058 14.3572 7.78058C16.7436 7.78058 18.0476 8.57898 18.7533 9.35263C19.1605 9.7992 19.3702 10.237 19.4692 10.5076C19.4577 10.553 19.45 10.5854 19.4494 10.5882ZM37.4741 30.942C35.4782 29.9976 29.8883 27.556 25.4354 27.556C22.94 27.556 21.4497 28.3419 20.5594 29.3702C20.5266 29.4079 20.4888 29.4431 20.4584 29.4816V10.7408C20.4689 10.6967 20.4922 10.6176 20.5316 10.5115C20.632 10.2415 20.8456 9.80197 21.2574 9.35326C21.9671 8.57961 23.2711 7.78108 25.6427 7.78108C27.5876 7.78108 29.9465 8.31385 32.6798 9.35326C34.1693 9.91983 35.7644 10.6312 37.4739 11.5016V30.942H37.4741Z" fill="#D5A129"/>
</svg>
