<svg width="40" height="40" viewBox="0 0 40 40" fill="none" xmlns="http://www.w3.org/2000/svg">
<g clip-path="url(#clip0_159_2721)">
<path d="M37.9526 15.802L35.145 15.3257C34.8525 14.3815 34.4765 13.4707 34.0169 12.6017L35.6714 10.2871C36.3733 9.30114 36.2647 7.95583 35.404 7.10353L32.9139 4.61347C32.446 4.14554 31.8277 3.88651 31.1676 3.88651C30.6495 3.88651 30.1565 4.04527 29.7387 4.34608L27.4157 6.00055C26.5133 5.52426 25.5691 5.13154 24.5914 4.83908L24.1235 2.06492C23.923 0.870022 22.8952 0.00100708 21.6836 0.00100708H18.1658C16.9541 0.00100708 15.9264 0.870022 15.7258 2.06492L15.2412 4.90593C14.3053 5.19838 13.3945 5.58276 12.5255 6.05069L10.2276 4.39622C9.80984 4.0954 9.30849 3.93664 8.79042 3.93664C8.1303 3.93664 7.50361 4.19567 7.04403 4.66361L4.54562 7.15367C3.69331 8.00597 3.57633 9.35127 4.27823 10.3373L5.94941 12.6853C5.48983 13.5626 5.12217 14.4734 4.83807 15.4177L2.06391 15.8856C0.869015 16.0861 0 17.1139 0 18.3255V21.8434C0 23.055 0.869015 24.0827 2.06391 24.2833L4.90492 24.7679C5.19738 25.7038 5.58175 26.6146 6.04968 27.4836L4.40357 29.7731C3.70167 30.7591 3.8103 32.1044 4.67095 32.9567L7.16102 35.4468C7.62895 35.9147 8.24728 36.1737 8.9074 36.1737C9.42547 36.1737 9.91847 36.015 10.3363 35.7142L12.6843 34.043C13.5282 34.4858 14.4139 34.8452 15.3247 35.1293L15.7927 37.9368C15.9932 39.1317 17.021 40.0007 18.2326 40.0007H21.7588C22.9704 40.0007 23.9982 39.1317 24.1987 37.9368L24.675 35.1293C25.6192 34.8368 26.53 34.4608 27.399 34.0012L29.7136 35.6557C30.1314 35.9565 30.6328 36.1152 31.1508 36.1152C31.811 36.1152 32.4293 35.8562 32.8972 35.3883L35.3873 32.8982C36.2396 32.0459 36.3566 30.7006 35.6547 29.7146L34.0002 27.3917C34.4598 26.5143 34.8442 25.6035 35.1283 24.6677L37.9358 24.1997C39.1307 23.9992 39.9998 22.9714 39.9998 21.7598V18.242C40.0165 17.0304 39.1474 16.0026 37.9526 15.802ZM37.7604 21.7598C37.7604 21.8684 37.6852 21.9603 37.5765 21.9771L34.0671 22.562C33.6242 22.6372 33.2732 22.963 33.1646 23.3892C32.8471 24.6175 32.3624 25.7957 31.7107 26.8903C31.4851 27.2747 31.5018 27.751 31.7608 28.1186L33.8247 31.0265C33.8832 31.1101 33.8749 31.2354 33.7997 31.3106L31.3096 33.8007C31.2511 33.8592 31.1926 33.8675 31.1508 33.8675C31.1007 33.8675 31.0589 33.8508 31.0255 33.8257L28.126 31.7618C27.7667 31.5028 27.2821 31.4861 26.8977 31.7117C25.8031 32.3634 24.6249 32.8481 23.3966 33.1656C22.962 33.2742 22.6362 33.6335 22.5693 34.0681L21.976 37.5775C21.9593 37.6862 21.8674 37.7614 21.7588 37.7614H18.241C18.1323 37.7614 18.0404 37.6862 18.0237 37.5775L17.4388 34.0681C17.3636 33.6252 17.0377 33.2742 16.6116 33.1656C15.4167 32.8564 14.2635 32.3802 13.1856 31.7618C13.0102 31.6616 12.8096 31.6114 12.6174 31.6114C12.3918 31.6114 12.1579 31.6783 11.9657 31.8203L9.0411 33.9009C8.99932 33.926 8.95754 33.9427 8.91576 33.9427C8.88233 33.9427 8.81549 33.9344 8.757 33.8759L6.26693 31.3858C6.19173 31.3106 6.18337 31.1936 6.24187 31.1017L8.29742 28.2189C8.55645 27.8513 8.57317 27.3666 8.34756 26.9822C7.6958 25.896 7.19444 24.7178 6.87692 23.4895C6.75993 23.0633 6.40898 22.7374 5.97448 22.6622L2.43993 22.0606C2.3313 22.0439 2.2561 21.952 2.2561 21.8434V18.3255C2.2561 18.2169 2.3313 18.125 2.43993 18.1083L5.92434 17.5234C6.36721 17.4481 6.72651 17.1223 6.83514 16.6878C7.1443 15.4594 7.62059 14.2729 8.264 13.1783C8.48961 12.7939 8.46454 12.3176 8.20551 11.9583L6.12488 9.03375C6.06639 8.95019 6.07475 8.82485 6.14995 8.74965L8.64001 6.25958C8.6985 6.20109 8.757 6.19274 8.79878 6.19274C8.84891 6.19274 8.89069 6.20945 8.92411 6.23452L11.8069 8.29007C12.1746 8.5491 12.6592 8.56581 13.0436 8.34021C14.1298 7.68844 15.308 7.18709 16.5363 6.86957C16.9625 6.75258 17.2884 6.40163 17.3636 5.96713L17.9652 2.43258C17.9819 2.32395 18.0738 2.24875 18.1825 2.24875H21.7003C21.8089 2.24875 21.9008 2.32395 21.9176 2.43258L22.5025 5.91699C22.5777 6.35986 22.9036 6.71916 23.3381 6.82779C24.5998 7.14531 25.8031 7.63831 26.9227 8.29843C27.3071 8.52404 27.7834 8.50732 28.1511 8.24829L31.0339 6.17602C31.0756 6.15096 31.1174 6.13425 31.1592 6.13425C31.1926 6.13425 31.2595 6.1426 31.318 6.20109L33.808 8.69115C33.8832 8.76636 33.8916 8.88334 33.8331 8.97526L31.7692 11.8748C31.5101 12.2341 31.4934 12.7187 31.719 13.1031C32.3708 14.1977 32.8554 15.3759 33.173 16.6042C33.2816 17.0387 33.6409 17.3646 34.0754 17.4314L37.5849 18.0247C37.6935 18.0414 37.7687 18.1333 37.7687 18.242V21.7598H37.7604Z" fill="#D5A129"/>
<path d="M20.004 11.3641C15.2411 11.3641 11.3723 15.2329 11.3723 19.9958C11.3723 24.7586 15.2411 28.6274 20.004 28.6274C24.7668 28.6274 28.6356 24.7586 28.6356 19.9958C28.6356 15.2329 24.7668 11.3641 20.004 11.3641ZM20.004 26.3713C16.4861 26.3713 13.6284 23.5136 13.6284 19.9958C13.6284 16.4779 16.4861 13.6202 20.004 13.6202C23.5218 13.6202 26.3795 16.4779 26.3795 19.9958C26.3795 23.5136 23.5218 26.3713 20.004 26.3713Z" fill="#D5A129"/>
</g>
<defs>
<clipPath id="clip0_159_2721">
<rect width="40" height="40" fill="white"/>
</clipPath>
</defs>
</svg>
