<svg width="160" height="150" viewBox="0 0 160 150" fill="none" xmlns="http://www.w3.org/2000/svg">
<path d="M142.797 125.385C137.785 117.293 131.052 110.254 123.017 104.704C114.982 99.1535 105.816 95.2108 96.0879 93.1203C105.204 89.6251 112.742 83.2702 117.414 75.1417C122.086 67.0133 123.602 57.616 121.702 48.556C119.802 39.496 114.605 31.3358 106.998 25.4702C99.3922 19.6046 89.8489 16.3978 80 16.3978C70.1511 16.3978 60.6078 19.6046 53.0015 25.4702C45.3952 31.3358 40.1979 39.496 38.2982 48.556C36.3984 57.616 37.914 67.0133 42.5859 75.1417C47.2578 83.2702 54.796 89.6251 63.912 93.1203C54.1841 95.2107 45.0183 99.1533 36.9835 104.703C28.9486 110.253 22.2163 117.292 17.2043 125.383C17.0395 125.65 16.9323 125.944 16.8889 126.249C16.8455 126.554 16.8666 126.865 16.9512 127.162C17.0358 127.46 17.1821 127.739 17.3818 127.984C17.5815 128.228 17.8306 128.434 18.115 128.588C18.3993 128.742 18.7133 128.842 19.039 128.883C19.3647 128.923 19.6957 128.903 20.013 128.823C20.3304 128.744 20.6279 128.606 20.8886 128.419C21.1493 128.231 21.368 127.998 21.5323 127.731C27.4599 118.111 35.9834 110.124 46.2465 104.571C56.5096 99.0172 68.1508 96.0937 80.0007 96.0938C91.8506 96.0938 103.492 99.0175 113.755 104.571C124.018 110.124 132.541 118.112 138.469 127.732C138.801 128.269 139.347 128.661 139.988 128.821C140.628 128.98 141.309 128.896 141.883 128.585C142.456 128.274 142.875 127.762 143.046 127.162C143.217 126.562 143.128 125.923 142.797 125.385ZM42.5 56.25C42.5 49.2968 44.6993 42.4997 48.8199 36.7183C52.9404 30.9368 58.7971 26.4308 65.6494 23.7699C72.5016 21.109 80.0416 20.4128 87.3159 21.7693C94.5902 23.1258 101.272 26.4741 106.516 31.3908C111.761 36.3075 115.332 42.5717 116.779 49.3914C118.226 56.211 117.484 63.2798 114.645 69.7037C111.807 76.1277 107.001 81.6184 100.834 85.4814C94.667 89.3444 87.4168 91.4063 80 91.4063C70.0578 91.3957 60.5261 87.6884 53.4959 81.0976C46.4658 74.5068 42.5113 65.5708 42.5 56.25Z" fill="#C8A98C"/>
</svg>
