<svg width="50" height="40" viewBox="0 0 50 40" fill="none" xmlns="http://www.w3.org/2000/svg">
<path d="M19.6053 0.592594C17.6316 1.18518 15.3947 2.76543 14.6053 4.24691C12.6316 7.80247 13.4211 15.9012 16.1842 20.642C20 27.1605 19.3421 28.5432 11.3158 31.4074C5 33.679 0 37.1358 0 39.2099C0 39.7037 11.3158 40 25 40C38.8158 40 50 39.6049 50 39.1111C50 37.2346 45.1316 33.8765 38.8158 31.3086C31.1842 28.1481 30.2632 26.2716 33.9474 20.1481C35.6579 17.284 36.4474 13.8272 36.3158 9.97531C36.1842 5.03704 35.6579 3.95062 32.8947 2.37037C28.5526 0 23.8158 -0.592594 19.6053 0.592594Z" fill="#D5A129"/>
</svg>
